<svg width="52" height="25" viewBox="0 0 52 25" fill="none" xmlns="http://www.w3.org/2000/svg">
<path d="M31.6492 0.383008L11.1001 0.417827L7.74546 5.71031H28.2771L31.6492 0.383008ZM22.7797 19.6727C22.5338 19.6727 10.6083 19.6901 9.78281 19.6901C10.1868 19.0634 12.4525 15.5467 12.5578 15.3552C12.8213 15.3552 20.5843 15.3552 21.0058 15.3552L24.3956 10.0279L4.98801 10.0627L1.59827 15.3726H6.12963L0 25H25.8709C26.3275 24.2862 34.9336 10.6894 35.32 10.0627C35.6713 10.585 37.9896 14.2235 38.3585 14.8329C37.7789 14.8329 35.6713 14.8329 35.6713 14.8329L32.2991 20.1253C32.2991 20.1253 32.3167 20.1253 32.3518 20.1253C33.0368 20.1253 41.5023 20.1253 41.7658 20.1253C41.9063 20.3343 44.6989 24.6866 44.8394 24.9304H51.25L35.2849 0C34.6702 0.97493 22.9202 19.4464 22.7797 19.6727Z" fill="#797979"/>
</svg>
