<svg width="30" height="30" viewBox="0 0 30 30" fill="none" xmlns="http://www.w3.org/2000/svg">
<path d="M5.46069 11.9835C5.46069 16.0045 8.84134 19.9784 14.0959 23.3685C14.3879 23.5568 14.7457 23.7451 14.9905 23.7451C15.2354 23.7451 15.5932 23.5568 15.8851 23.3685C21.1492 19.9784 24.5204 16.0045 24.5204 11.9835C24.5204 8.50868 22.1191 6.09796 19.0398 6.09796C17.2412 6.09796 15.8381 6.91723 14.9905 8.16025C14.1619 6.92664 12.7493 6.09796 10.9507 6.09796C7.86199 6.09796 5.46069 8.50868 5.46069 11.9835ZM7.40056 11.9741C7.40056 9.60103 8.96376 7.99075 11.0637 7.99075C12.7588 7.99075 13.7099 9.01719 14.3031 9.91179C14.5668 10.2979 14.7457 10.4203 14.9905 10.4203C15.2448 10.4203 15.4049 10.2885 15.678 9.91179C16.3183 9.03602 17.2318 7.99075 18.9174 7.99075C21.0268 7.99075 22.5899 9.60103 22.5899 11.9741C22.5899 15.2888 19.1434 18.9614 15.1695 21.5981C15.0847 21.6546 15.0282 21.6923 14.9905 21.6923C14.9529 21.6923 14.8964 21.6546 14.821 21.5981C10.8471 18.9614 7.40056 15.2888 7.40056 11.9741Z" fill="black"/>
</svg>
