<svg width="22" height="22" viewBox="0 0 22 22" fill="none" xmlns="http://www.w3.org/2000/svg">
<path d="M3.85949 18.5281C3.79911 18.5284 3.7391 18.5187 3.68189 18.4995C3.56223 18.4606 3.45869 18.3835 3.38725 18.2799C3.3158 18.1764 3.28043 18.0522 3.28657 17.9265C3.28657 17.8406 3.87668 9.52186 12.2183 8.86873V5.87811C12.2182 5.7642 12.2521 5.65286 12.3156 5.55829C12.3791 5.46372 12.4693 5.39021 12.5748 5.34717C12.6802 5.30413 12.7961 5.29349 12.9076 5.31663C13.0192 5.33977 13.1213 5.39562 13.2009 5.47706L18.8556 11.2521C18.9606 11.3592 19.0194 11.5031 19.0194 11.6531C19.0194 11.8031 18.9606 11.9471 18.8556 12.0541L13.2009 17.8291C13.1213 17.9106 13.0192 17.9664 12.9076 17.9896C12.7961 18.0127 12.6802 18.0021 12.5748 17.959C12.4693 17.916 12.3791 17.8425 12.3156 17.7479C12.2521 17.6534 12.2182 17.542 12.2183 17.4281V14.4948C6.64959 14.7068 4.36652 18.2187 4.3436 18.2617C4.29192 18.3433 4.22043 18.4105 4.13579 18.4571C4.05115 18.5037 3.9561 18.5281 3.85949 18.5281ZM13.3642 7.28175V9.40441C13.3643 9.55294 13.3067 9.69571 13.2035 9.80259C13.1004 9.90948 12.9598 9.97213 12.8113 9.97732C7.41444 10.175 5.48371 13.77 4.79048 16.0818C6.22277 14.8443 8.77512 13.3318 12.7569 13.3318H12.7827C12.9346 13.3318 13.0803 13.3921 13.1878 13.4996C13.2952 13.607 13.3556 13.7527 13.3556 13.9047V16.0273L17.6525 11.656L13.3642 7.28175Z" fill="white" fill-opacity="0.6"/>
</svg>
