<svg width="34" height="34" viewBox="0 0 34 34" fill="none" xmlns="http://www.w3.org/2000/svg">
<path d="M15.2177 23.1118C16.9146 23.1118 18.5048 22.5995 19.8282 21.7243L24.5027 26.4095C24.8122 26.7084 25.2071 26.8578 25.634 26.8578C26.5198 26.8578 27.1708 26.1641 27.1708 25.2889C27.1708 24.8834 27.0321 24.4885 26.7332 24.1897L22.0907 19.5258C23.0513 18.1598 23.6169 16.5055 23.6169 14.7126C23.6169 10.0914 19.8388 6.31335 15.2177 6.31335C10.6072 6.31335 6.81848 10.0914 6.81848 14.7126C6.81848 19.3337 10.5965 23.1118 15.2177 23.1118ZM15.2177 20.8706C11.8345 20.8706 9.05969 18.0957 9.05969 14.7126C9.05969 11.3294 11.8345 8.55457 15.2177 8.55457C18.6008 8.55457 21.3757 11.3294 21.3757 14.7126C21.3757 18.0957 18.6008 20.8706 15.2177 20.8706Z" fill="#B1B1B1"/>
</svg>
