<svg width="41" height="41" viewBox="0 0 41 41" fill="none" xmlns="http://www.w3.org/2000/svg">
<path d="M18.3507 27.8701C20.397 27.8701 22.3146 27.2523 23.9105 26.197L29.5474 31.8468C29.9206 32.2072 30.3968 32.3873 30.9116 32.3873C31.9798 32.3873 32.7648 31.5508 32.7648 30.4955C32.7648 30.0064 32.5975 29.5303 32.2371 29.1699L26.6388 23.5458C27.7971 21.8985 28.4792 19.9037 28.4792 17.7416C28.4792 12.169 23.9233 7.61316 18.3507 7.61316C12.791 7.61316 8.22229 12.169 8.22229 17.7416C8.22229 23.3142 12.7782 27.8701 18.3507 27.8701ZM18.3507 25.1674C14.271 25.1674 10.9249 21.8213 10.9249 17.7416C10.9249 13.6619 14.271 10.3158 18.3507 10.3158C22.4304 10.3158 25.7766 13.6619 25.7766 17.7416C25.7766 21.8213 22.4304 25.1674 18.3507 25.1674Z" fill="#161616"/>
</svg>
