<svg width="22" height="22" viewBox="0 0 22 22" fill="none" xmlns="http://www.w3.org/2000/svg">
<path d="M1.52777 5.19434H20.4722V16.8054H1.52777V5.19434Z" fill="white"/>
<path d="M1.52777 5.19434H20.4722V6.72211H1.52777V5.19434ZM1.52777 7.94434H20.4722V9.16656H1.52777V7.94434ZM1.52777 10.3888H20.4722V11.611H1.52777V10.3888Z" fill="#D22F27"/>
<path d="M1.52777 5.19434H11.3055V11.611H1.52777V5.19434Z" fill="#1E50A0"/>
<path d="M1.52777 12.8335H20.4722V14.0557H1.52777V12.8335Z" fill="#D22F27"/>
<path d="M2.74999 7.25694C3.04531 7.25694 3.28472 7.01754 3.28472 6.72222C3.28472 6.4269 3.04531 6.1875 2.74999 6.1875C2.45467 6.1875 2.21527 6.4269 2.21527 6.72222C2.21527 7.01754 2.45467 7.25694 2.74999 7.25694Z" fill="white"/>
<path d="M5.19445 7.25694C5.48977 7.25694 5.72917 7.01754 5.72917 6.72222C5.72917 6.4269 5.48977 6.1875 5.19445 6.1875C4.89913 6.1875 4.65973 6.4269 4.65973 6.72222C4.65973 7.01754 4.89913 7.25694 5.19445 7.25694Z" fill="white"/>
<path d="M7.63891 7.25694C7.93423 7.25694 8.17363 7.01754 8.17363 6.72222C8.17363 6.4269 7.93423 6.1875 7.63891 6.1875C7.34359 6.1875 7.10419 6.4269 7.10419 6.72222C7.10419 7.01754 7.34359 7.25694 7.63891 7.25694Z" fill="white"/>
<path d="M10.0833 7.25694C10.3786 7.25694 10.618 7.01754 10.618 6.72222C10.618 6.4269 10.3786 6.1875 10.0833 6.1875C9.78799 6.1875 9.54858 6.4269 9.54858 6.72222C9.54858 7.01754 9.78799 7.25694 10.0833 7.25694Z" fill="white"/>
<path d="M8.86114 8.47911C9.15646 8.47911 9.39586 8.23971 9.39586 7.94439C9.39586 7.64907 9.15646 7.40967 8.86114 7.40967C8.56582 7.40967 8.32642 7.64907 8.32642 7.94439C8.32642 8.23971 8.56582 8.47911 8.86114 8.47911Z" fill="white"/>
<path d="M6.41668 8.47911C6.712 8.47911 6.9514 8.23971 6.9514 7.94439C6.9514 7.64907 6.712 7.40967 6.41668 7.40967C6.12136 7.40967 5.88196 7.64907 5.88196 7.94439C5.88196 8.23971 6.12136 8.47911 6.41668 8.47911Z" fill="white"/>
<path d="M3.97222 8.47911C4.26754 8.47911 4.50694 8.23971 4.50694 7.94439C4.50694 7.64907 4.26754 7.40967 3.97222 7.40967C3.6769 7.40967 3.4375 7.64907 3.4375 7.94439C3.4375 8.23971 3.6769 8.47911 3.97222 8.47911Z" fill="white"/>
<path d="M2.74999 9.70128C3.04531 9.70128 3.28472 9.46188 3.28472 9.16656C3.28472 8.87124 3.04531 8.63184 2.74999 8.63184C2.45467 8.63184 2.21527 8.87124 2.21527 9.16656C2.21527 9.46188 2.45467 9.70128 2.74999 9.70128Z" fill="white"/>
<path d="M5.19445 9.70128C5.48977 9.70128 5.72917 9.46188 5.72917 9.16656C5.72917 8.87124 5.48977 8.63184 5.19445 8.63184C4.89913 8.63184 4.65973 8.87124 4.65973 9.16656C4.65973 9.46188 4.89913 9.70128 5.19445 9.70128Z" fill="white"/>
<path d="M7.63891 9.70128C7.93423 9.70128 8.17363 9.46188 8.17363 9.16656C8.17363 8.87124 7.93423 8.63184 7.63891 8.63184C7.34359 8.63184 7.10419 8.87124 7.10419 9.16656C7.10419 9.46188 7.34359 9.70128 7.63891 9.70128Z" fill="white"/>
<path d="M10.0833 9.70128C10.3786 9.70128 10.618 9.46188 10.618 9.16656C10.618 8.87124 10.3786 8.63184 10.0833 8.63184C9.78799 8.63184 9.54858 8.87124 9.54858 9.16656C9.54858 9.46188 9.78799 9.70128 10.0833 9.70128Z" fill="white"/>
<path d="M8.86114 10.9234C9.15646 10.9234 9.39586 10.684 9.39586 10.3887C9.39586 10.0934 9.15646 9.854 8.86114 9.854C8.56582 9.854 8.32642 10.0934 8.32642 10.3887C8.32642 10.684 8.56582 10.9234 8.86114 10.9234Z" fill="white"/>
<path d="M6.41668 10.9234C6.712 10.9234 6.9514 10.684 6.9514 10.3887C6.9514 10.0934 6.712 9.854 6.41668 9.854C6.12136 9.854 5.88196 10.0934 5.88196 10.3887C5.88196 10.684 6.12136 10.9234 6.41668 10.9234Z" fill="white"/>
<path d="M3.97222 10.9234C4.26754 10.9234 4.50694 10.684 4.50694 10.3887C4.50694 10.0934 4.26754 9.854 3.97222 9.854C3.6769 9.854 3.4375 10.0934 3.4375 10.3887C3.4375 10.684 3.6769 10.9234 3.97222 10.9234Z" fill="white"/>
<path d="M1.52777 15.2778H20.4722V16.8056H1.52777V15.2778Z" fill="#D22F27"/>
<path d="M1.52777 5.19434H20.4722V16.8054H1.52777V5.19434Z" stroke="#B1B1B1" stroke-opacity="0.24" stroke-width="0.611111" stroke-linecap="round" stroke-linejoin="round"/>
</svg>
