<svg width="27" height="27" viewBox="0 0 27 27" fill="none" xmlns="http://www.w3.org/2000/svg">
<path d="M19.125 10.125C19.125 8.63316 18.5324 7.20242 17.4775 6.14752C16.4226 5.09263 14.9918 4.5 13.5 4.5C12.0082 4.5 10.5774 5.09263 9.52252 6.14752C8.46763 7.20242 7.875 8.63316 7.875 10.125C7.875 10.4234 7.99353 10.7095 8.20451 10.9205C8.41548 11.1315 8.70163 11.25 9 11.25C9.29837 11.25 9.58452 11.1315 9.7955 10.9205C10.0065 10.7095 10.125 10.4234 10.125 10.125C10.125 9.45749 10.3229 8.80497 10.6938 8.24995C11.0646 7.69493 11.5917 7.26235 12.2084 7.00691C12.8251 6.75146 13.5037 6.68462 14.1584 6.81485C14.8131 6.94508 15.4145 7.26651 15.8865 7.73851C16.3585 8.21052 16.6799 8.81188 16.8102 9.46657C16.9404 10.1213 16.8735 10.7999 16.6181 11.4166C16.3626 12.0333 15.9301 12.5604 15.3751 12.9312C14.82 13.3021 14.1675 13.5 13.5 13.5C13.2016 13.5 12.9155 13.6185 12.7045 13.8295C12.4935 14.0405 12.375 14.3266 12.375 14.625V16.875C12.375 17.1734 12.4935 17.4595 12.7045 17.6705C12.9155 17.8815 13.2016 18 13.5 18C13.7984 18 14.0845 17.8815 14.2955 17.6705C14.5065 17.4595 14.625 17.1734 14.625 16.875V15.6375C15.8955 15.3782 17.0374 14.6878 17.8575 13.6833C18.6775 12.6787 19.1253 11.4217 19.125 10.125Z" fill="#B1B1B1"/>
<path d="M13.5 22.5C14.1213 22.5 14.625 21.9963 14.625 21.375C14.625 20.7537 14.1213 20.25 13.5 20.25C12.8787 20.25 12.375 20.7537 12.375 21.375C12.375 21.9963 12.8787 22.5 13.5 22.5Z" fill="#B1B1B1"/>
</svg>
