<svg width="24" height="22" viewBox="0 0 24 22" fill="none" xmlns="http://www.w3.org/2000/svg">
<path d="M23 8.90094C23.0494 7.58887 22.7364 6.28662 22.09 5.11511C21.6514 4.63441 21.0427 4.31001 20.37 4.19844C17.5875 3.96701 14.7935 3.87215 12 3.91427C9.21664 3.87024 6.4327 3.96203 3.66 4.18927C3.11182 4.28068 2.60451 4.51638 2.2 4.86761C1.3 5.62844 1.2 6.93011 1.1 8.03011C0.954908 10.0079 0.954908 11.9923 1.1 13.9701C1.12893 14.5892 1.22949 15.2038 1.4 15.8034C1.52057 16.2664 1.76452 16.6948 2.11 17.0501C2.51726 17.4199 3.03638 17.669 3.6 17.7651C5.75591 18.009 7.92821 18.1101 10.1 18.0676C13.6 18.1134 16.67 18.0676 20.3 17.8109C20.8775 17.7208 21.4112 17.4714 21.83 17.0959C22.11 16.8392 22.3191 16.5249 22.44 16.1793C22.7976 15.1733 22.9733 14.1205 22.96 13.0626C23 12.5493 23 9.45094 23 8.90094ZM9.74 13.6126V7.93844L15.66 10.7893C14 11.6326 11.81 12.5859 9.74 13.6126Z" fill="black"/>
</svg>
