<svg width="21" height="18" viewBox="0 0 21 18" fill="none" xmlns="http://www.w3.org/2000/svg">
<path d="M20.92 2.11765C20.15 2.48824 19.32 2.73176 18.46 2.84824C19.34 2.28706 20.02 1.39765 20.34 0.328235C19.51 0.857647 18.59 1.22824 17.62 1.44C16.83 0.529412 15.72 0 14.46 0C12.11 0 10.19 2.03294 10.19 4.54235C10.19 4.90235 10.23 5.25177 10.3 5.58C6.74 5.38941 3.57 3.57882 1.46 0.836471C1.09 1.50353 0.88 2.28706 0.88 3.11294C0.88 4.69059 1.63 6.08824 2.79 6.88235C2.08 6.88235 1.42 6.67059 0.84 6.35294V6.38471C0.84 8.58706 2.32 10.4294 4.28 10.8424C3.65073 11.0247 2.9901 11.0501 2.35 10.9165C2.62161 11.8191 3.15354 12.6089 3.87102 13.1749C4.5885 13.7408 5.45545 14.0545 6.35 14.0718C4.83363 15.3428 2.954 16.0299 1.02 16.02C0.68 16.02 0.34 15.9988 0 15.9565C1.9 17.2482 4.16 18 6.58 18C14.46 18 18.79 11.0753 18.79 5.07176C18.79 4.87059 18.79 4.68 18.78 4.47882C19.62 3.84353 20.34 3.03882 20.92 2.11765Z" fill="black"/>
</svg>
