<svg width="26" height="26" viewBox="0 0 26 26" fill="none" xmlns="http://www.w3.org/2000/svg">
<path d="M13 11.9167C13.8571 11.9167 14.6949 11.6625 15.4075 11.1864C16.1201 10.7102 16.6755 10.0334 17.0035 9.24163C17.3315 8.44982 17.4173 7.57853 17.2501 6.73794C17.0829 5.89736 16.6702 5.12523 16.0641 4.51921C15.4581 3.91318 14.686 3.50047 13.8454 3.33327C13.0048 3.16606 12.1335 3.25188 11.3417 3.57986C10.5499 3.90784 9.87314 4.46325 9.39699 5.17586C8.92083 5.88848 8.66669 6.72628 8.66669 7.58333C8.66669 8.73261 9.12323 9.83481 9.93589 10.6475C10.7485 11.4601 11.8507 11.9167 13 11.9167Z" fill="#B1B1B1"/>
<path d="M19.5 22.75C19.7873 22.75 20.0629 22.6359 20.2661 22.4327C20.4692 22.2296 20.5834 21.954 20.5834 21.6667C20.5834 19.6555 19.7844 17.7266 18.3622 16.3045C16.9401 14.8823 15.0112 14.0834 13 14.0834C10.9888 14.0834 9.05994 14.8823 7.63779 16.3045C6.21564 17.7266 5.41669 19.6555 5.41669 21.6667C5.41669 21.954 5.53082 22.2296 5.73399 22.4327C5.93715 22.6359 6.2127 22.75 6.50002 22.75H19.5Z" fill="#B1B1B1"/>
</svg>
