<svg width="24" height="24" viewBox="0 0 24 24" fill="none" xmlns="http://www.w3.org/2000/svg">
<path d="M8.48824 16.9973C8.23833 16.9978 7.99615 16.9049 7.80372 16.7346L1.38638 11.0232C1.16796 10.8294 1.0306 10.5507 1.00453 10.2487C0.97845 9.94665 1.06579 9.64592 1.24734 9.41265C1.42888 9.17938 1.68976 9.03268 1.97258 9.00483C2.2554 8.97699 2.53699 9.07026 2.75541 9.26415L8.48824 14.3815L14.2211 9.44691C14.3305 9.35203 14.4563 9.28117 14.5915 9.23842C14.7266 9.19566 14.8683 9.18185 15.0084 9.19777C15.1486 9.21369 15.2844 9.25903 15.4081 9.3312C15.5318 9.40336 15.6409 9.50091 15.7291 9.61825C15.8271 9.7357 15.9013 9.87349 15.947 10.023C15.9928 10.1725 16.0092 10.3305 15.9951 10.487C15.9811 10.6436 15.9369 10.7954 15.8653 10.9328C15.7938 11.0703 15.6965 11.1905 15.5794 11.286L9.16206 16.8031C8.9641 16.9465 8.72685 17.0149 8.48824 16.9973Z" fill="#231F20"/>
</svg>
